<svg width="192" height="192" viewBox="0 0 192 192" fill="none" xmlns="http://www.w3.org/2000/svg">
<rect width="192" height="192" fill="white"/>
<path fill-rule="evenodd" clip-rule="evenodd" d="M130.106 170.543C119.79 174.699 108.431 177 96.5 177C49.2797 177 11 140.959 11 96.5C11 52.0411 49.2797 16 96.5 16C143.72 16 182 52.0411 182 96.5C182 129.341 161.112 157.59 131.162 170.11V170.56C130.81 170.56 130.458 170.554 130.106 170.543ZM107.142 162.746C105.833 161.907 104.588 161.037 103.419 160.157C99.7493 157.393 96.5387 154.314 94.1189 151.292C91.9266 148.555 89.5831 144.887 89.1506 141.013L89.1054 140.608V108.92H26.5696C32.7548 139.983 61.7118 163.49 96.5 163.49C100.117 163.49 103.671 163.236 107.142 162.746ZM103.895 92.728L143.113 45.8863C132.376 37.1133 118.82 31.3184 103.895 29.8674V92.728ZM103.895 108.92H166.43C162.375 129.288 148.529 146.407 129.668 155.781C123.949 155.337 117.667 152.428 112.343 148.418C109.523 146.295 107.235 144.055 105.684 142.117C104.459 140.587 104.028 139.669 103.895 139.384L103.895 108.92ZM89.1054 29.8674V92.0533L52.6825 43.7167C62.9363 36.1604 75.4477 31.1952 89.1054 29.8674ZM41.7387 53.7265L72.2365 94.2H25.3903C25.9409 78.8341 31.9879 64.7804 41.7387 53.7265ZM121.913 94.2H167.61C167.103 80.0639 161.945 67.0382 153.53 56.4372L121.913 94.2Z" fill="#11275A"/>
<path d="M103.895 108.92H166.43C162.375 129.288 148.529 146.407 129.668 155.781C123.949 155.337 117.667 152.428 112.343 148.418C109.523 146.295 107.235 144.055 105.684 142.117C104.459 140.587 104.028 139.669 103.895 139.384L103.895 108.92Z" fill="#F8DD39"/>
<path d="M103.419 160.157C104.588 161.037 105.833 161.907 107.142 162.746C103.671 163.236 100.117 163.49 96.5 163.49C61.7118 163.49 32.7548 139.983 26.5696 108.92H89.1054V140.608L89.1506 141.013C89.5831 144.887 91.9266 148.555 94.1189 151.292C96.5387 154.314 99.7493 157.393 103.419 160.157Z" fill="#F8DD39"/>
<path d="M167.61 94.2H121.913L153.53 56.4372C161.945 67.0382 167.103 80.0639 167.61 94.2Z" fill="white"/>
<path d="M103.895 92.728L143.113 45.8863C132.376 37.1133 118.82 31.3184 103.895 29.8674V92.728Z" fill="white"/>
<path d="M89.1054 29.8674V92.0533L52.6825 43.7167C62.9363 36.1604 75.4477 31.1952 89.1054 29.8674Z" fill="white"/>
<path d="M72.2365 94.2L41.7387 53.7265C31.9879 64.7804 25.9409 78.8341 25.3903 94.2H72.2365Z" fill="white"/>
</svg>
